<mxfile host="www.draw.io" modified="2019-10-27T23:53:30.317Z" agent="Mozilla/5.0 (Windows NT 10.0; Win64; x64) AppleWebKit/537.36 (KHTML, like Gecko) Chrome/78.0.3904.70 Safari/537.36" etag="sDY7LHWkXWdJvsulzS8y" version="12.1.7" type="github" pages="1">
  <diagram name="Page-1" id="e7e014a7-5840-1c2e-5031-d8a46d1fe8dd">
    <mxGraphModel dx="768" dy="406" grid="1" gridSize="10" guides="1" tooltips="1" connect="1" arrows="1" fold="1" page="1" pageScale="1" pageWidth="1169" pageHeight="826" background="#ffffff" math="0" shadow="0">
      <root>
        <mxCell id="0"/>
        <mxCell id="1" parent="0"/>
        <mxCell id="2" value="Login" style="swimlane;whiteSpace=wrap;startSize=23;" parent="1" vertex="1">
          <mxGeometry x="120" y="128" width="325" height="570" as="geometry"/>
        </mxCell>
        <mxCell id="5" value="" style="ellipse;shape=startState;fillColor=#000000;strokeColor=#ff0000;" parent="2" vertex="1">
          <mxGeometry x="147.5" y="42" width="30" height="30" as="geometry"/>
        </mxCell>
        <mxCell id="6" value="" style="edgeStyle=elbowEdgeStyle;elbow=horizontal;verticalAlign=bottom;endArrow=open;endSize=8;strokeColor=#FF0000;endFill=1;rounded=0" parent="2" source="5" target="7" edge="1">
          <mxGeometry x="100" y="40" as="geometry">
            <mxPoint x="115" y="110" as="targetPoint"/>
          </mxGeometry>
        </mxCell>
        <mxCell id="7" value="Get Token&#xa;openid-connect/token/" style="" parent="2" vertex="1">
          <mxGeometry x="92.5" y="112" width="140" height="50" as="geometry"/>
        </mxCell>
        <mxCell id="8" value="Get Location&#xa;location/locations?name=Six October" style="" parent="2" vertex="1">
          <mxGeometry x="57.5" y="212" width="210" height="50" as="geometry"/>
        </mxCell>
        <mxCell id="9" value="" style="endArrow=open;strokeColor=#FF0000;endFill=1;rounded=0" parent="2" source="7" target="8" edge="1">
          <mxGeometry relative="1" as="geometry"/>
        </mxCell>
        <mxCell id="10" value="Get used Tablet&#xa;&#xa;hardware/devices?locationId={{locationId}}&#xa;&amp;type=TABLET&#xa;&amp;_expand=applicationConfiguration.configuredApplication" style="" parent="2" vertex="1">
          <mxGeometry x="47.5" y="332" width="230" height="115" as="geometry"/>
        </mxCell>
        <mxCell id="11" value="" style="endArrow=open;strokeColor=#FF0000;endFill=1;rounded=0" parent="2" source="8" target="10" edge="1">
          <mxGeometry relative="1" as="geometry">
            <Array as="points"/>
          </mxGeometry>
        </mxCell>
        <mxCell id="dshhlBXRl_FVyqsbfam4-42" value="locationId" style="text;html=1;fontColor=#FF6666;" vertex="1" parent="2">
          <mxGeometry x="100" y="282" width="55" height="30" as="geometry"/>
        </mxCell>
        <mxCell id="dshhlBXRl_FVyqsbfam4-47" value="locationId" style="text;html=1;fontColor=#FF6666;" vertex="1" parent="2">
          <mxGeometry x="267.5" y="122" width="55" height="30" as="geometry"/>
        </mxCell>
        <mxCell id="3" value="Perform Sample Sale" style="swimlane;whiteSpace=wrap" parent="1" vertex="1">
          <mxGeometry x="444.5" y="128" width="285.5" height="570" as="geometry"/>
        </mxCell>
        <mxCell id="13" value="" style="ellipse;shape=startState;fillColor=#000000;strokeColor=#ff0000;" parent="3" vertex="1">
          <mxGeometry x="120" y="42" width="30" height="30" as="geometry"/>
        </mxCell>
        <mxCell id="14" value="" style="edgeStyle=elbowEdgeStyle;elbow=horizontal;verticalAlign=bottom;endArrow=open;endSize=8;strokeColor=#FF0000;endFill=1;rounded=0" parent="3" source="13" target="15" edge="1">
          <mxGeometry x="40" y="20" as="geometry">
            <mxPoint x="55" y="90" as="targetPoint"/>
          </mxGeometry>
        </mxCell>
        <mxCell id="15" value="Search product offer" style="" parent="3" vertex="1">
          <mxGeometry x="20" y="110" width="230" height="50" as="geometry"/>
        </mxCell>
        <mxCell id="16" value="Get bundle offer and product relation" style="" parent="3" vertex="1">
          <mxGeometry x="10" y="222" width="250" height="50" as="geometry"/>
        </mxCell>
        <mxCell id="17" value="" style="endArrow=open;strokeColor=#FF0000;endFill=1;rounded=0" parent="3" source="15" target="16" edge="1">
          <mxGeometry relative="1" as="geometry"/>
        </mxCell>
        <mxCell id="18" value="Get Serialnumer information" style="" parent="3" vertex="1">
          <mxGeometry x="40" y="332" width="190" height="50" as="geometry"/>
        </mxCell>
        <mxCell id="19" value="" style="endArrow=open;strokeColor=#FF0000;endFill=1;rounded=0" parent="3" source="16" target="18" edge="1">
          <mxGeometry relative="1" as="geometry"/>
        </mxCell>
        <mxCell id="26" value="" style="edgeStyle=elbowEdgeStyle;elbow=horizontal;verticalAlign=bottom;endArrow=open;endSize=8;strokeColor=#FF0000;endFill=1;rounded=0" parent="3" target="15" edge="1">
          <mxGeometry x="130" y="90" as="geometry">
            <mxPoint x="230" y="140" as="targetPoint"/>
            <mxPoint x="147.5" y="134.95000000000005" as="sourcePoint"/>
          </mxGeometry>
        </mxCell>
        <mxCell id="dshhlBXRl_FVyqsbfam4-59" value="offerId" style="text;html=1;fontColor=#FF6666;" vertex="1" parent="3">
          <mxGeometry x="85.5" y="172" width="45" height="30" as="geometry"/>
        </mxCell>
        <mxCell id="dshhlBXRl_FVyqsbfam4-60" value="productId" style="text;html=1;fontColor=#FF6666;" vertex="1" parent="3">
          <mxGeometry x="75" y="285" width="45" height="30" as="geometry"/>
        </mxCell>
        <mxCell id="dshhlBXRl_FVyqsbfam4-76" value="bundlePart2ProductId" style="text;html=1;resizable=0;points=[];autosize=1;align=left;verticalAlign=top;spacingTop=-4;fontColor=#97D077;" vertex="1" parent="3">
          <mxGeometry x="155.5" y="412" width="130" height="20" as="geometry"/>
        </mxCell>
        <mxCell id="4" value="Cart" style="swimlane;whiteSpace=wrap" parent="1" vertex="1">
          <mxGeometry x="725" y="128" width="316" height="570" as="geometry"/>
        </mxCell>
        <mxCell id="dshhlBXRl_FVyqsbfam4-48" value="" style="ellipse;shape=startState;fillColor=#000000;strokeColor=#ff0000;" vertex="1" parent="4">
          <mxGeometry x="125" y="42" width="30" height="30" as="geometry"/>
        </mxCell>
        <mxCell id="dshhlBXRl_FVyqsbfam4-53" value="" style="edgeStyle=orthogonalEdgeStyle;rounded=0;orthogonalLoop=1;jettySize=auto;html=1;strokeColor=#FF6666;fontColor=#FF6666;" edge="1" parent="4" source="dshhlBXRl_FVyqsbfam4-51" target="dshhlBXRl_FVyqsbfam4-52">
          <mxGeometry relative="1" as="geometry"/>
        </mxCell>
        <mxCell id="dshhlBXRl_FVyqsbfam4-51" value="Create Cart" style="" vertex="1" parent="4">
          <mxGeometry x="25" y="112" width="230" height="50" as="geometry"/>
        </mxCell>
        <mxCell id="dshhlBXRl_FVyqsbfam4-55" value="" style="edgeStyle=orthogonalEdgeStyle;rounded=0;orthogonalLoop=1;jettySize=auto;html=1;strokeColor=#FF6666;fontColor=#FF6666;" edge="1" parent="4" source="dshhlBXRl_FVyqsbfam4-52" target="dshhlBXRl_FVyqsbfam4-54">
          <mxGeometry relative="1" as="geometry"/>
        </mxCell>
        <mxCell id="dshhlBXRl_FVyqsbfam4-52" value="Â Create offer cart position" style="" vertex="1" parent="4">
          <mxGeometry x="25" y="242" width="230" height="50" as="geometry"/>
        </mxCell>
        <mxCell id="dshhlBXRl_FVyqsbfam4-58" value="" style="edgeStyle=orthogonalEdgeStyle;rounded=0;orthogonalLoop=1;jettySize=auto;html=1;strokeColor=#FF6666;fontColor=#FF6666;" edge="1" parent="4" source="dshhlBXRl_FVyqsbfam4-54" target="dshhlBXRl_FVyqsbfam4-57">
          <mxGeometry relative="1" as="geometry"/>
        </mxCell>
        <mxCell id="dshhlBXRl_FVyqsbfam4-54" value="Create offer part cart pos" style="" vertex="1" parent="4">
          <mxGeometry x="25" y="372" width="230" height="50" as="geometry"/>
        </mxCell>
        <mxCell id="dshhlBXRl_FVyqsbfam4-57" value="Set position serials" style="" vertex="1" parent="4">
          <mxGeometry x="25" y="502" width="230" height="50" as="geometry"/>
        </mxCell>
        <mxCell id="dshhlBXRl_FVyqsbfam4-62" value="&lt;font color=&quot;#97d077&quot;&gt;locationId&lt;/font&gt;" style="text;html=1;fontColor=#FF6666;" vertex="1" parent="4">
          <mxGeometry x="25" y="62" width="55" height="30" as="geometry"/>
        </mxCell>
        <mxCell id="dshhlBXRl_FVyqsbfam4-63" value="&lt;font color=&quot;#97d077&quot;&gt;cartId&lt;/font&gt;" style="text;html=1;fontColor=#FF6666;" vertex="1" parent="4">
          <mxGeometry x="155" y="187" width="55" height="30" as="geometry"/>
        </mxCell>
        <mxCell id="dshhlBXRl_FVyqsbfam4-65" value="&lt;font color=&quot;#97d077&quot;&gt;offerId&lt;/font&gt;" style="text;html=1;fontColor=#FF6666;" vertex="1" parent="4">
          <mxGeometry x="15.5" y="172" width="55" height="30" as="geometry"/>
        </mxCell>
        <mxCell id="dshhlBXRl_FVyqsbfam4-67" value="&lt;font color=&quot;#97d077&quot;&gt;cart2bundleOfferId&lt;/font&gt;" style="text;html=1;fontColor=#FF6666;" vertex="1" parent="4">
          <mxGeometry x="35.5" y="342" width="55" height="30" as="geometry"/>
        </mxCell>
        <mxCell id="dshhlBXRl_FVyqsbfam4-74" value="&lt;font color=&quot;#97d077&quot;&gt;cartId&lt;/font&gt;" style="text;html=1;fontColor=#FF6666;" vertex="1" parent="4">
          <mxGeometry x="215.5" y="342" width="55" height="30" as="geometry"/>
        </mxCell>
        <mxCell id="dshhlBXRl_FVyqsbfam4-80" value="&lt;font color=&quot;#97d077&quot;&gt;parentId&lt;/font&gt;" style="text;html=1;fontColor=#FF6666;" vertex="1" parent="4">
          <mxGeometry x="35.5" y="317" width="55" height="30" as="geometry"/>
        </mxCell>
        <mxCell id="dshhlBXRl_FVyqsbfam4-81" value="bundlePartBasePositionId" style="text;html=1;resizable=0;points=[];autosize=1;align=left;verticalAlign=top;spacingTop=-4;fontColor=#97D077;" vertex="1" parent="4">
          <mxGeometry x="15.5" y="472" width="150" height="20" as="geometry"/>
        </mxCell>
        <mxCell id="dshhlBXRl_FVyqsbfam4-82" style="edgeStyle=orthogonalEdgeStyle;rounded=0;orthogonalLoop=1;jettySize=auto;html=1;exitX=1;exitY=0.25;exitDx=0;exitDy=0;strokeColor=#FF6666;fontColor=#97D077;" edge="1" parent="4" source="dshhlBXRl_FVyqsbfam4-51" target="dshhlBXRl_FVyqsbfam4-57">
          <mxGeometry relative="1" as="geometry">
            <mxPoint x="315.5" y="546" as="targetPoint"/>
            <Array as="points">
              <mxPoint x="285" y="125"/>
              <mxPoint x="285" y="546"/>
            </Array>
          </mxGeometry>
        </mxCell>
        <mxCell id="dshhlBXRl_FVyqsbfam4-83" value="&lt;font color=&quot;#97d077&quot;&gt;cartId&lt;/font&gt;" style="text;html=1;fontColor=#FF6666;" vertex="1" parent="4">
          <mxGeometry x="243" y="472" width="55" height="30" as="geometry"/>
        </mxCell>
        <mxCell id="20" value="" style="endArrow=open;strokeColor=#FF0000;endFill=1;rounded=0;entryX=0;entryY=0.75;entryDx=0;entryDy=0;exitX=1;exitY=0.5;exitDx=0;exitDy=0;" parent="1" source="8" target="15" edge="1">
          <mxGeometry relative="1" as="geometry">
            <Array as="points">
              <mxPoint x="420" y="365"/>
              <mxPoint x="420" y="276"/>
            </Array>
          </mxGeometry>
        </mxCell>
        <mxCell id="dshhlBXRl_FVyqsbfam4-46" value="Text" style="text;html=1;resizable=0;points=[];autosize=1;align=left;verticalAlign=top;spacingTop=-4;fontColor=#FF6666;" vertex="1" parent="1">
          <mxGeometry x="440" y="789" width="40" height="20" as="geometry"/>
        </mxCell>
        <mxCell id="dshhlBXRl_FVyqsbfam4-49" style="edgeStyle=orthogonalEdgeStyle;rounded=0;orthogonalLoop=1;jettySize=auto;html=1;fontColor=#FF6666;strokeColor=#FF6666;" edge="1" parent="1" source="dshhlBXRl_FVyqsbfam4-48">
          <mxGeometry relative="1" as="geometry">
            <mxPoint x="865" y="240" as="targetPoint"/>
            <Array as="points">
              <mxPoint x="864" y="210"/>
              <mxPoint x="864" y="210"/>
            </Array>
          </mxGeometry>
        </mxCell>
        <mxCell id="dshhlBXRl_FVyqsbfam4-61" style="edgeStyle=orthogonalEdgeStyle;rounded=0;orthogonalLoop=1;jettySize=auto;html=1;exitX=0.967;exitY=0.02;exitDx=0;exitDy=0;entryX=0.25;entryY=0;entryDx=0;entryDy=0;strokeColor=#FF6666;fontColor=#FF6666;exitPerimeter=0;" edge="1" parent="1" source="8" target="dshhlBXRl_FVyqsbfam4-51">
          <mxGeometry relative="1" as="geometry"/>
        </mxCell>
        <mxCell id="dshhlBXRl_FVyqsbfam4-64" value="" style="edgeStyle=orthogonalEdgeStyle;rounded=0;orthogonalLoop=1;jettySize=auto;html=1;strokeColor=#FF6666;fontColor=#FF6666;entryX=0;entryY=0.5;entryDx=0;entryDy=0;" edge="1" parent="1" source="15" target="dshhlBXRl_FVyqsbfam4-52">
          <mxGeometry relative="1" as="geometry">
            <Array as="points">
              <mxPoint x="740" y="263"/>
              <mxPoint x="740" y="395"/>
            </Array>
          </mxGeometry>
        </mxCell>
        <mxCell id="dshhlBXRl_FVyqsbfam4-73" style="edgeStyle=orthogonalEdgeStyle;rounded=0;orthogonalLoop=1;jettySize=auto;html=1;exitX=1;exitY=0.75;exitDx=0;exitDy=0;strokeColor=#FF6666;fontColor=#FF6666;" edge="1" parent="1" source="dshhlBXRl_FVyqsbfam4-51">
          <mxGeometry relative="1" as="geometry">
            <mxPoint x="980" y="530" as="targetPoint"/>
            <Array as="points">
              <mxPoint x="990" y="278"/>
              <mxPoint x="990" y="530"/>
            </Array>
          </mxGeometry>
        </mxCell>
        <mxCell id="dshhlBXRl_FVyqsbfam4-75" style="edgeStyle=orthogonalEdgeStyle;rounded=0;orthogonalLoop=1;jettySize=auto;html=1;exitX=0.75;exitY=1;exitDx=0;exitDy=0;entryX=0;entryY=0.75;entryDx=0;entryDy=0;strokeColor=#FF6666;fontColor=#FF6666;" edge="1" parent="1" source="16" target="dshhlBXRl_FVyqsbfam4-54">
          <mxGeometry relative="1" as="geometry">
            <Array as="points">
              <mxPoint x="700" y="400"/>
              <mxPoint x="700" y="538"/>
            </Array>
          </mxGeometry>
        </mxCell>
      </root>
    </mxGraphModel>
  </diagram>
</mxfile>
